<?xml version="1.0" encoding="utf-8"?>
<!-- Generator: Adobe Illustrator 18.1.1, SVG Export Plug-In . SVG Version: 6.00 Build 0)  -->
<svg version="1.1" id="Layer_1" xmlns="http://www.w3.org/2000/svg" xmlns:xlink="http://www.w3.org/1999/xlink" x="0px" y="0px"
	 width="24px" height="24px" viewBox="0 0 24 24" enable-background="new 0 0 24 24" xml:space="preserve">
<g id="XMLID_3_" opacity="0.6">
	<path fill="#FFFFFF" d="M3.4,20.5c-2.2-2.8-1.7-6.9,0.8-9.4l9.6-9.6c1.8-1.8,4.8-2.2,6.9-0.5C22.9,3,23,6.4,21,8.5l-7.7,7.7
		c-1,1-2.7,1.3-3.9,0.5C7.8,15.6,7.6,13.3,9,12l6-6c0.2-0.2,0.5-0.2,0.7,0l0.7,0.7c0.2,0.2,0.2,0.5,0,0.7l-6,6c-0.4,0.4-0.4,1,0,1.4
		c0.4,0.4,1,0.4,1.4,0l7.7-7.7c1-1,1.3-2.7,0.5-3.9c-1.1-1.6-3.3-1.8-4.6-0.5l-9.7,9.7c-1.8,1.8-2.2,4.8-0.5,6.9
		c1.9,2.3,5.3,2.4,7.4,0.4l8.1-8.1c0.2-0.2,0.5-0.2,0.7,0l0.7,0.7c0.2,0.2,0.2,0.5,0,0.7l-8.1,8.1C11,24.2,6,23.9,3.4,20.5z"/>
</g>
</svg>
