<?xml version="1.0" encoding="utf-8"?>
<!-- Generator: Adobe Illustrator 18.1.1, SVG Export Plug-In . SVG Version: 6.00 Build 0)  -->
<svg version="1.1" id="Layer_1" xmlns="http://www.w3.org/2000/svg" xmlns:xlink="http://www.w3.org/1999/xlink" x="0px" y="0px"
	 width="200px" height="191px" viewBox="-687.5 275.1 200 191" enable-background="new -687.5 275.1 200 191" xml:space="preserve">
<g>
	<g>
		<path fill="#555555" d="M-602.8,348.8c-2,3.6-3.2,3.2-2-0.8c-2,3.2-6.7-3.2-3.2-4.3c-4.3,0.4-4.3-1.2-0.4-2.4
			c-3.6,0-0.8-7.5,2-5.1c-2.4-3.6-1.2-4.3,1.6-1.6c-2-3.2,5.9-4.3,5.1-0.8c2-3.6,3.2-3.2,2,0.8c2-3.2,6.7,3.2,3.2,4.3
			c4.3-0.4,4.3,1.2,0.4,2.4c3.6,0,0.8,7.5-2,5.1c2.4,3.6,1.2,4.3-1.6,1.6C-595.7,351.2-603.6,352.4-602.8,348.8z"/>
	</g>
	<g>
		<path fill="#555555" d="M-587,328.6c-2,3.6-3.2,2.8-2-0.8c-1.6,2.8-6.3-2.8-3.2-4c-4,0.4-4.3-1.2-0.4-2.4c-3.6,0-0.8-6.7,1.6-4.3
			c-2-3.2-0.8-4.3,1.6-1.6c-1.6-3.2,5.5-4,4.7-0.8c2-3.6,3.2-2.8,2,0.8c1.6-2.8,6.3,2.8,3.2,4c4-0.4,4.3,1.2,0.4,2.4
			c3.6,0,0.8,6.7-1.6,4.3c2,3.2,0.8,4.3-1.6,1.6C-580.7,331-587.8,332.2-587,328.6z"/>
	</g>
	<g>
		<path fill="#555555" d="M-578.3,353.2c-2,4-3.6,3.6-2-0.8c-2,3.6-7.5-3.6-4-4.7c-4.7,0.4-4.7-1.2-0.4-2.4c-4,0-0.8-8.3,2.4-5.5
			c-2.4-4-1.2-4.7,1.6-1.6c-2-3.6,7.1-4.7,5.9-0.8c2-4,3.6-3.6,2,0.8c2-3.6,7.5,3.6,4,4.7c4.7-0.4,4.7,1.2,0.4,2.4
			c4,0,0.8,8.3-2.4,5.5c2.4,4,1.2,4.7-1.6,1.6C-570.4,355.9-579.5,357.1-578.3,353.2z"/>
	</g>
	<g>
		<path fill="#555555" d="M-562.9,332.6c-1.6,3.6-3.2,2.8-2-0.8c-1.6,2.8-5.9-2.4-2.8-3.6c-4,0-4-1.2-0.4-2.4
			c-3.2,0-0.8-6.3,1.6-4.3c-2-3.2-0.8-4,1.6-1.6c-1.6-2.8,5.1-4,4.3-0.8c1.6-3.6,3.2-2.8,2,0.8c1.6-2.8,5.9,2.4,2.8,3.6
			c4,0,4,1.2,0.4,2.4c3.2,0,0.8,6.3-1.6,4.3c2,3.2,0.8,4-1.6,1.6C-556.6,334.6-563.3,335.8-562.9,332.6z"/>
	</g>
	<g>
		<path fill="#555555" d="M-545.5,316.4c-1.6,2.8-2.8,2.4-2-0.8c-1.6,2.4-4.7-2-2.4-2.8c-3.2,0-3.6-1.6-0.4-2.4
			c-2.8,0-0.8-5.1,1.2-3.2c-1.6-2.8-0.4-3.6,1.6-1.6c-1.2-2.4,4-3.2,3.6-0.4c1.6-2.8,2.8-2.4,2,0.8c1.6-2.4,4.7,2,2.4,2.8
			c3.2,0,3.6,1.6,0.4,2.4c2.8,0,0.8,5.1-1.2,3.2c1.6,2.8,0.4,3.6-1.6,1.6C-541.1,318.4-546.3,318.8-545.5,316.4z"/>
	</g>
	<g>
		<path fill="#555555" d="M-528.9,303.7c-1.2,2-2.8,1.6-2-0.8c-1.2,1.6-2.8-0.4-1.2-1.2c-2.4,0-2.8-1.6-0.4-2.4
			c-2-0.4-0.8-2.8,0.8-1.6c-1.2-2,0-3.2,1.6-1.6c-0.8-1.6,2-2,1.6,0c1.2-2,2.8-1.6,2,0.8c1.2-1.6,2.8,0.4,1.2,1.2
			c2.4,0,2.8,1.6,0.4,2.4c2,0.4,0.8,2.8-0.8,1.6c1.2,2,0,3.2-1.6,1.6C-526.5,305.3-528.9,305.7-528.9,303.7z"/>
	</g>
	<g>
		<path fill="#555555" d="M-523.3,324.7c-1.2,2.4-2.8,1.6-2-0.8c-1.2,1.6-3.2-0.8-1.2-1.6c-2.4,0-2.8-1.6-0.4-2.4
			c-2-0.4-0.8-3.2,0.8-2c-1.2-2.4,0-3.2,1.6-1.6c-0.8-2,2-2.4,2-0.4c1.2-2.4,2.8-1.6,2,0.8c1.2-1.6,3.2,0.8,1.2,1.6
			c2.4,0,2.8,1.6,0.4,2.4c2,0.4,0.8,3.2-0.8,2c1.2,2.4,0,3.2-1.6,1.6C-520.6,326.3-523.7,326.7-523.3,324.7z"/>
	</g>
	<g>
		<path fill="#555555" d="M-508.7,318.8c-1.2,1.6-2.4,1.2-2-0.8c-1.2,1.2-1.6,0.4-0.4-0.4c-2,0-2-1.6-0.4-2.4
			c-1.2-0.4-1.2-1.2,0.4-0.8c-1.2-1.6,0-2.4,1.6-1.2c-0.4-1.2,0.8-1.6,0.8,0c1.2-1.6,2.4-1.2,2,0.8c1.2-1.2,1.6-0.4,0.4,0.4
			c2,0,2,1.6,0.4,2.4c1.2,0.4,1.2,1.2-0.4,0.8c0.8,1.6-0.4,2.8-1.6,1.6C-507.9,319.9-508.7,320.3-508.7,318.8z"/>
	</g>
	<g>
		<path fill="#555555" d="M-539.6,338.1c-1.6,3.2-3.2,2.4-2-0.8c-1.6,2.4-5.1-2-2.4-2.8c-3.6,0-3.6-1.2-0.4-2.4
			c-2.8,0-0.8-5.5,1.6-3.6c-2-2.8-0.8-4,1.6-1.6c-1.2-2.8,4.3-3.6,3.6-0.4c1.6-3.2,3.2-2.4,2,0.8c1.6-2.4,5.1,2,2.4,2.8
			c3.6,0,3.6,1.2,0.4,2.4c2.8,0,0.8,5.5-1.2,3.6c2,2.8,0.8,4-1.6,1.6C-534.4,340.1-540.3,340.9-539.6,338.1z"/>
	</g>
	<g>
		<path fill="#555555" d="M-521,344.5c-1.2,2.4-2.8,2-2-0.8c-1.2,2-3.6-1.2-1.6-2c-2.8,0-3.2-1.6-0.4-2.4c-2.4-0.4-0.8-3.6,0.8-2.4
			c-1.6-2.4-0.4-3.2,1.6-1.6c-0.8-2,2.8-2.8,2.4-0.4c1.2-2.4,2.8-2,2,0.8c1.2-2,3.6,1.2,1.6,2c2.8,0,3.2,1.6,0.4,2.4
			c2.4,0.4,0.8,3.6-0.8,2.4c1.6,2.4,0.4,3.2-1.6,1.6C-517.8,346-521.4,346.8-521,344.5z"/>
	</g>
	<g>
		<path fill="#555555" d="M-504.4,340.9c-1.2,2.4-2.8,1.6-2-0.8c-1.2,1.6-3.2-0.8-1.2-1.6c-2.4,0-2.8-1.6-0.4-2.4
			c-2-0.4-0.8-3.2,0.8-2c-1.2-2.4,0-3.2,1.6-1.6c-0.8-2,2.4-2.4,2-0.4c1.2-2.4,2.8-1.6,2,0.8c1.2-1.6,3.2,0.8,1.2,1.6
			c2.4,0,2.8,1.6,0.4,2.4c2,0.4,0.8,3.2-0.8,2c1.2,2.4,0,3.2-1.6,1.6C-501.6,342.5-504.4,342.9-504.4,340.9z"/>
	</g>
	<g>
		<path fill="#555555" d="M-551.4,291.9c-1.2,2-2.8,1.6-2-0.8c-1.2,1.6-2.8-0.4-0.8-1.2c-2.4,0-2.4-1.6-0.4-2.4
			c-2-0.4-0.8-2.4,0.4-1.6c-1.2-2,0-2.8,1.6-1.6c-0.8-1.6,1.6-2,1.6-0.4c1.2-2,2.8-1.6,2,0.8c1.2-0.4,2.8,1.2,1.2,2
			c2.4,0,2.4,1.6,0.4,2.4c2,0.4,0.8,2.4-0.4,1.6c1.2,2,0,2.8-1.6,1.6C-549.4,293.5-551.4,293.9-551.4,291.9z"/>
	</g>
	<g>
		<path fill="#555555" d="M-574.7,287.1c-1.2,2.4-2.8,2-2-0.8c-1.2,2-3.6-1.2-1.6-2c-2.8,0-3.2-1.6-0.4-2.4
			c-2.4-0.4-0.8-3.6,0.8-2.4c-1.6-2.4-0.4-3.2,1.6-1.6c-0.8-2,2.8-2.8,2.4-0.4c1.2-2.4,2.8-2,2,0.8c1.2-2,3.6,1.2,1.6,2
			c2.8,0,3.2,1.6,0.4,2.4c2.4,0.4,0.8,3.6-0.8,2.4c1.6,2.4,0.4,3.2-1.6,1.6C-571.6,288.7-575.1,289.1-574.7,287.1z"/>
	</g>
	<g>
		<path fill="#555555" d="M-600.4,287.5c-1.6,2.8-2.8,2-2-0.8c-1.6,2-4-1.2-1.6-2.4c-2.8,0-3.2-1.6-0.4-2.4c-2.4-0.4-0.8-4,1.2-2.8
			c-1.6-2.4-0.4-3.6,1.6-1.6c-1.2-2.4,3.2-2.8,2.8-0.4c1.6-2.8,2.8-2,2,0.8c1.6-1.6,4,2,1.6,2.8c2.8,0,3.2,1.6,0.4,2.4
			c2.4,0.4,0.8,4-1.2,2.8c2,2.4,0.8,3.2-1.6,1.2C-596.5,289.1-600.8,289.9-600.4,287.5z"/>
	</g>
	<g>
		<path fill="#555555" d="M-621,288.3c-1.2,2-2.8,1.6-2-0.8c-1.2,1.6-2.4-0.4-0.8-1.2c-2.4,0-2.4-1.6-0.4-2.4
			c-2-0.4-0.8-2.4,0.4-1.6c-1.2-2,0-2.8,1.6-1.6c-0.8-1.6,1.6-2,1.6-0.4c1.2-2,2.8-1.6,2,0.8c1.2-1.6,2.4,0.4,0.8,1.2
			c2.4,0,2.4,1.6,0.4,2.4c2,0.4,0.8,2.4-0.4,1.2c1.2,2,0,2.8-1.6,1.6C-619,289.9-621.4,290.3-621,288.3z"/>
	</g>
	<g>
		<path fill="#555555" d="M-592.5,306.1c-1.6,2.8-2.8,2.4-2-0.8c-1.6,2.4-4.7-1.6-2-2.8c-3.2,0-3.6-1.6-0.4-2.4
			c-2.8,0-0.8-4.7,1.2-3.2c-1.6-2.8-0.4-3.6,1.6-1.6c-1.2-2.4,3.6-3.2,3.2-0.4c1.6-2.8,2.8-2.4,2,0.8c1.6-2.4,4.7,1.6,2,2.8
			c3.2,0,3.6,1.6,0.4,2.4c2.8,0,0.8,4.7-1.2,3.2c1.6,2.8,0.4,3.6-1.6,1.6C-588.2,308.1-593.3,308.9-592.5,306.1z"/>
	</g>
	<g>
		<path fill="#555555" d="M-569.2,310.1c-1.6,2.8-2.8,2.4-2-0.8c-1.6,2.4-4.7-2-2.4-2.8c-3.2,0-3.6-1.6-0.4-2.4
			c-2.8,0-0.8-5.1,1.2-3.2c-1.6-2.8-0.4-3.6,1.6-1.6c-1.2-2.4,4-3.2,3.6-0.4c1.6-2.8,2.8-2.4,2,0.8c1.6-2.4,4.7,2,2.4,2.8
			c3.2,0,3.6,1.6,0.4,2.4c3.2,0,1.2,5.1-0.8,3.2c1.6,2.8,0.4,3.6-1.6,1.6C-564.5,312-569.6,312.8-569.2,310.1z"/>
	</g>
	<g>
		<path fill="#555555" d="M-609.9,325.1c-1.6,3.2-3.2,2.4-2-0.8c-1.6,2.4-5.1-2-2.4-2.8c-3.6,0-3.6-1.2-0.4-2.4
			c-2.8,0-0.8-5.5,1.6-3.6c-2-2.8-0.8-4,1.6-1.6c-1.2-2.8,4.3-3.6,3.6-0.4c1.6-3.2,3.2-2.4,2,0.8c1.6-2.4,5.1,2,2.4,2.8
			c3.6,0,3.6,1.2,0.4,2.4c2.8,0,0.8,5.5-1.2,3.6c2,2.8,0.8,4-1.6,1.6C-604.8,327.5-610.3,328.3-609.9,325.1z"/>
	</g>
	<g>
		<path fill="#555555" d="M-615.4,305.3c-1.2,2.4-2.8,2-2-0.8c-1.6,1.6-3.6-1.2-1.6-2c-2.8,0-2.8-1.6-0.4-2.4
			c-2.4-0.4-0.8-3.6,0.8-2.4c-1.6-2.4,0-3.2,1.6-1.6c-0.8-2,2.8-2.4,2.4-0.4c1.2-2.4,2.8-2,2,0.8c1.2-2,3.6,1.2,1.6,2
			c2.8,0,2.8,1.6,0.4,2.4c2.4,0.4,0.8,3.6-0.8,2.4c1.6,2.4,0,3.2-1.6,1.6C-612.3,306.9-615.8,307.3-615.4,305.3z"/>
	</g>
	<g>
		<path fill="#555555" d="M-637.6,303.7c-1.2,2.4-2.8,1.6-2-0.8c-1.2,1.6-3.2-0.8-1.2-1.6c-2.4,0-2.8-1.6-0.4-2.4
			c-2-0.4-0.8-3.2,0.8-2c-1.2-2.4,0-3.2,1.6-1.6c-0.8-2,2-2.4,2-0.4c1.2-2.4,2.8-1.6,2,0.8c1.2-1.6,3.2,0.8,1.2,1.6
			c2.4,0,2.8,1.6,0.4,2.4c2,0.4,0.8,3.2-0.8,2c1.2,2.4,0,3.2-1.6,1.6C-634.8,305.3-637.6,305.7-637.6,303.7z"/>
	</g>
	<g>
		<path fill="#555555" d="M-652.6,304.1c-1.2,1.6-2.4,1.2-2-0.8c-1.2,1.2-2,0-0.8-0.8c-2-0.4-2.4-1.6-0.4-2.4
			c-1.6-0.4-0.8-2,0.4-1.2c-0.8-1.6,0.4-2.8,2-1.2c-0.8-1.6,0.8-2,0.8-0.4c1.2-1.6,2.8-1.2,2.4,1.2c1.2-1.2,2,0,0.8,0.8
			c2,0,2.4,1.6,0.4,2.4c1.6,0.4,1.2,2-0.4,1.2c0.8,1.2-0.4,2.4-2,0.8C-651,305.3-652.6,305.7-652.6,304.1z"/>
	</g>
	<g>
		<path fill="#555555" d="M-633.6,323.1c-1.2,2.4-2.8,2-2-0.8c-1.2,2-3.6-1.2-1.6-2c-2.8,0-3.2-1.6-0.4-2.4
			c-2.4-0.4-0.8-3.6,0.8-2.4c-1.6-2.4-0.4-3.2,1.6-1.6c-0.8-2,2.8-2.8,2.4-0.4c2-2,3.2-1.6,2.8,1.2c1.2-2,3.6,1.2,1.6,2
			c2.8,0,3.2,1.6,0.4,2.4c2.4,0.4,0.8,3.6-0.8,2.4c1.6,2.4,0.4,3.2-1.6,1.6C-630.1,324.7-633.6,325.5-633.6,323.1z"/>
	</g>
	<g>
		<path fill="#555555" d="M-653.4,321.9c-1.2,2-2.8,1.6-2-1.2c-1.2,1.6-3.2-0.8-1.2-1.6c-2.8,0-2.8-1.6-0.4-2.4
			c-2-0.4-0.8-3.2,0.8-2c-1.6-2-0.4-3.2,1.6-1.2c-0.8-2,2.4-2.4,2-0.4c1.2-2.4,2.8-1.6,2,0.8c1.6-1.6,3.6,0.8,1.6,2
			c2.8,0,2.8,1.6,0.4,2.4c2,0.4,0.8,3.2-0.8,2c1.2,2.4,0,3.2-1.6,1.6C-650.6,323.5-653.8,323.9-653.4,321.9z"/>
	</g>
	<g>
		<path fill="#555555" d="M-626.9,345.2c-1.6,3.2-3.2,2.8-2-0.8c-1.6,2.8-5.9-2.4-2.8-3.6c-3.6,0-4-1.2-0.4-2.4
			c-3.2,0-0.8-6.3,1.6-4c-2-3.2-0.8-4,1.6-1.6c-1.6-2.8,5.1-4,4.3-0.8c1.6-3.2,3.2-2.8,2,0.8c1.6-2.8,5.9,2.4,2.8,3.6
			c3.6,0,4,1.2,0.4,2.4c3.2,0,0.8,6.3-1.6,4c2,3.2,0.8,4-1.6,1.6C-621,347.2-627.7,348.4-626.9,345.2z"/>
	</g>
	<g>
		<path fill="#555555" d="M-553.8,356.7c-2,3.6-3.2,3.2-2-0.8c-2,3.2-6.7-3.2-3.2-4c-4.3,0.4-4.3-1.2-0.4-2.4c-3.6,0-0.8-7.5,2-4.7
			c-2.4-3.6-1.2-4.3,1.6-1.6c-2-3.2,5.9-4.3,5.1-0.8c2-3.6,3.2-3.2,2,0.8c2-3.2,6.7,3.2,3.2,4c4.3-0.4,4.3,1.2,0.4,2.4
			c3.6,0,0.8,7.5-2,4.7c2.4,3.6,1.2,4.3-1.6,1.6C-546.7,359.1-554.6,360.3-553.8,356.7z"/>
	</g>
	<g>
		<path fill="#555555" d="M-532,362.2c-1.6,3.2-3.2,2.4-2-0.8c-1.6,2.4-5.1-2-2.4-2.8c-3.6,0-3.6-1.2-0.4-2.4
			c-2.8,0-0.8-5.5,1.6-3.6c-2-2.8-0.8-4,1.6-1.6c-1.2-2.8,4.3-3.6,3.6-0.4c1.6-3.2,3.2-2.4,2,0.8c1.6-2.4,5.1,2,2.4,2.8
			c3.6,0,3.6,1.2,0.4,2.4c2.8,0,0.8,5.5-1.6,3.6c2,2.8,0.8,4-1.6,1.6C-526.9,364.2-532.4,365-532,362.2z"/>
	</g>
	<g>
		<path fill="#555555" d="M-510.7,364.6c-1.6,2.8-2.8,2.4-2-0.8c-1.6,2.4-4.7-2-2.4-2.8c-3.2,0-3.6-1.6-0.4-2.4
			c-2.8,0-0.8-5.1,1.2-3.2c-1.6-2.8-0.4-3.6,1.6-1.6c-1.2-2.4,4-3.2,3.6-0.4c1.6-2.8,2.8-2.4,2,0.8c1.6-2.4,4.7,2,2.4,2.8
			c3.2,0,3.6,1.6,0.4,2.4c2.8,0,0.8,5.1-1.2,3.2c1.6,2.8,0.4,3.6-1.6,1.6C-506,366.6-511.1,367.4-510.7,364.6z"/>
	</g>
	<g>
		<path fill="#555555" d="M-492.5,361.5c-1.2,1.6-2.4,1.2-2-0.8c-1.2,1.2-2,0-0.8-0.8c-2,0-2.4-1.6-0.4-2.4
			c-1.6-0.4-1.2-1.6,0.4-0.8c-0.8-2,0.4-2.8,1.6-1.6c-0.4-1.6,1.2-1.6,0.8,0c1.2-1.6,2.4-1.2,2,0.8c1.2-1.2,2,0,0.8,0.8
			c2,0,2.4,1.6,0.4,2.4c1.6,0.4,1.2,1.6-0.4,0.8c0.8,2-0.4,2.8-1.6,1.6C-490.9,362.6-492.5,363-492.5,361.5z"/>
	</g>
	<g>
		<path fill="#555555" d="M-680.7,346c-0.8,1.2-2.4,0.8-2-0.8c-0.8,0.8-1.2,0.8,0,0c-1.6,0-2-1.6-0.4-2.4c-1.2-0.4-1.2-0.4,0,0
			c-0.8-1.6,0.4-2.4,1.6-1.6c-0.4-1.2,0-1.2,0,0c0.8-1.2,2.4-0.8,2,0.8c0.8-0.8,1.2-0.8,0,0c1.6,0,2,1.6,0.4,2.4
			c1.2,0.4,1.2,0.4,0,0C-678.3,346-679.5,347.2-680.7,346C-680.7,347.2-680.7,347.2-680.7,346z"/>
	</g>
	<g>
		<path fill="#555555" d="M-669.2,322.3c-1.2,1.6-2.4,1.2-2.4-0.8c-1.2,1.2-1.6,0.4-0.4-0.4c-2,0-2-1.6-0.4-2.4
			c-1.6-0.4-1.2-1.2,0.4-0.8c-0.8-1.6,0.4-2.8,1.6-1.6c-0.4-1.6,0.8-1.6,0.8,0c1.2-1.6,2.4-1.2,2,0.8c1.2-1.2,1.6-0.4,0.4,0.4
			c2,0,2,1.6,0.4,2.4c1.6,0.4,1.2,1.2-0.4,0.8c0.8,1.6-0.4,2.8-1.6,1.6C-668.4,323.9-669.2,323.9-669.2,322.3z"/>
	</g>
	<g>
		<path fill="#555555" d="M-649.4,342.9c-1.6,2.8-2.8,2-2-0.8c-1.6,2-4.3-1.6-2-2.4c-3.2,0-3.2-1.6-0.4-2.4c-2.4,0-0.8-4.3,1.2-2.8
			c-1.6-2.8-0.4-3.6,1.6-1.6c-1.2-2.4,3.2-2.8,3.2-0.4c1.6-2.8,2.8-2,2,0.8c1.6-2,4.3,1.6,2,2.4c3.2,0,3.2,1.6,0.4,2.4
			c2.4,0,0.8,4.3-1.2,2.8c1.6,2.8,0.4,3.6-1.6,1.6C-645.5,344.9-649.8,345.6-649.4,342.9z"/>
	</g>
	<g>
		<path fill="#555555" d="M-668,341.7c-1.6,2-2.8,1.6-2.4-1.2c-1.2,1.6-3.2-0.8-1.2-1.6c-2.4,0-2.8-1.6-0.4-2.4
			c-2-0.4-0.8-3.2,0.8-2c-1.2-2.4,0-3.2,1.6-1.6c-0.8-2,2-2.4,2-0.4c1.2-2.4,2.8-1.6,2,0.8c1.2-1.6,3.2,0.8,1.2,1.6
			c2.4,0,2.8,1.6,0.4,2.4c2,0.4,0.8,3.2-0.8,2c1.2,2.4,0,3.2-1.6,1.6C-665.3,343.3-668.4,343.7-668,341.7z"/>
	</g>
	<g>
		<path fill="#555555" d="M-641.1,363.4c-1.6,2.8-2.8,2.4-2-0.8c-1.6,2.4-4.7-2-2-2.8c-3.2,0-3.6-1.6-0.4-2.4
			c-2.8,0-0.8-5.1,1.2-3.2c-1.6-2.8-0.4-3.6,1.6-1.6c-1.2-2.4,4-3.2,3.6-0.4c1.6-2.8,2.8-2.4,2,0.8c1.6-2.4,4.7,2,2,2.8
			c3.2,0,3.6,1.6,0.4,2.4c2.8,0,0.8,5.1-1.2,3.2c1.6,2.8,0.4,3.6-1.6,1.6C-636.4,365.4-641.5,366.2-641.1,363.4z"/>
	</g>
	<g>
		<path fill="#555555" d="M-619,367c-2,3.6-3.2,2.8-2-0.8c-1.6,2.8-6.3-2.8-3.2-4c-4,0.4-4.3-1.2-0.4-2.4c-3.6,0-0.8-6.7,1.6-4.3
			c-2-3.2-0.8-4.3,1.6-1.6c-1.6-3.2,5.5-4,4.7-0.8c2-3.6,3.2-2.8,2,0.8c1.6-2.8,6.3,2.8,3.2,4c4-0.4,4.3,1.2,0.4,2.4
			c3.6,0,0.8,6.7-1.6,4.3c2,3.2,0.8,4.3-1.6,1.6C-612.3,369.4-619.4,370.1-619,367z"/>
	</g>
	<g>
		<path fill="#555555" d="M-594.9,371.3c-2,3.6-3.2,3.2-2-0.8c-2,3.2-6.7-3.2-3.2-4c-4,0.4-4.3-1.2-0.4-2.4c-3.6,0-0.8-7.1,2-4.7
			c-2.4-3.6-1.2-4.3,1.6-1.6c-1.6-3.2,5.9-4.3,5.1-0.8c2-3.6,3.2-3.2,2,0.8c2-3.2,6.7,3.2,3.2,4c4-0.4,4.3,1.2,0.4,2.4
			c3.6,0,0.8,7.1-2,4.7c2.4,3.6,1.2,4.3-1.6,1.6C-587.8,373.7-595.7,374.9-594.9,371.3z"/>
	</g>
	<g>
		<path fill="#555555" d="M-569.6,375.7c-2,4-3.2,3.2-2-0.8c-2,3.2-7.1-3.2-3.6-4.3c-4.3,0.4-4.3-1.2-0.4-2.4c-4,0-0.8-7.9,2-5.1
			c-2-3.6-0.8-4.3,2-1.2c-2-3.2,6.3-4.3,5.5-0.8c2-4,3.2-3.2,2,0.8c2-3.2,7.1,3.2,3.6,4.3c4.3-0.4,4.3,1.2,0.4,2.4
			c4,0,0.8,7.9-2,5.1c2.4,3.6,1.2,4.7-1.6,1.6C-562.1,378.4-570.4,379.6-569.6,375.7z"/>
	</g>
	<g>
		<path fill="#555555" d="M-544.3,380.4c-1.6,3.6-3.2,2.8-2-0.8c-1.6,2.8-5.9-2.4-2.8-3.6c-4,0-4-1.2-0.4-2.4
			c-3.2,0-0.8-6.3,1.6-4.3c-2-3.2-0.8-4,1.6-1.6c-1.6-2.8,5.1-4,4.3-0.8c1.6-3.6,3.2-2.8,2,0.8c1.6-2.8,5.9,2.4,2.8,3.6
			c4,0,4,1.2,0.4,2.4c3.2,0,0.8,6.3-1.6,4.3c2,3.2,0.8,4-1.6,1.6C-538.4,382.8-545.1,383.6-544.3,380.4z"/>
	</g>
	<g>
		<path fill="#555555" d="M-521.4,384c-1.6,3.2-3.2,2.4-2-0.8c-1.6,2.4-5.1-2-2.4-2.8c-3.6,0-3.6-1.2-0.4-2.4
			c-2.8,0-0.8-5.5,1.6-3.6c-2-2.8-0.8-4,1.6-1.6c-1.2-2.8,4.3-3.6,3.6-0.4c1.6-3.2,3.2-2.4,2,0.8c1.6-2.4,5.1,2,2.4,2.8
			c3.6,0,3.6,1.2,0.4,2.4c2.8,0,0.8,5.5-1.6,3.6c2,2.8,0.8,4-1.6,1.6C-516.2,386-521.8,386.8-521.4,384z"/>
	</g>
	<g>
		<path fill="#555555" d="M-500,383.2c-1.2,2-2.8,1.6-2-0.8c-1.2,1.6-3.2-0.8-1.2-1.6c-2.4,0-2.8-1.6-0.4-2.4
			c-2-0.4-0.8-2.8,0.8-1.6c-1.2-2,0-3.2,1.6-1.6c-0.8-2,2-2.4,2-0.4c1.2-2,2.8-1.6,2,0.8c1.2-1.6,3.2,0.8,1.2,1.6
			c2.4,0,2.8,1.6,0.4,2.4c2,0.4,0.8,2.8-0.8,1.6c1.2,2,0,3.2-1.6,1.6C-497.3,384.8-500,385.2-500,383.2z"/>
	</g>
	<g>
		<path fill="#555555" d="M-497.7,404.1c-1.2,2-2.8,1.6-2-0.8c-1.2,1.6-3.2-0.8-1.2-1.6c-2.4,0-2.8-1.6-0.4-2.4
			c-2-0.4-0.8-2.8,0.8-2c-1.2-2,0-3.2,1.6-1.6c-0.8-2,2-2.4,2-0.4c1.2-2,2.8-1.6,2,0.8c1.2-1.6,3.2,0.8,1.2,1.6
			c2.4,0,2.8,1.6,0.4,2.4c2,0.4,0.8,2.8-0.8,2c1.2,2,0,3.2-1.6,1.6C-494.9,405.7-497.7,406.1-497.7,404.1z"/>
	</g>
	<g>
		<path fill="#555555" d="M-514.3,404.5c-1.6,2.8-2.8,2-2-0.8c-1.6,2-4.3-1.6-2-2.4c-3.2,0-3.2-1.6-0.4-2.4
			c-2.4-0.4-0.8-4.3,1.2-2.8c-1.6-2.8-0.4-3.6,1.6-1.6c-1.2-2.4,3.2-2.8,3.2-0.4c1.6-2.8,2.8-2,2,0.8c1.6-2,4.3,1.6,2,2.4
			c3.2,0,3.2,1.6,0.4,2.4c2.4,0,0.8,4.3-1.2,2.8c1.6,2.8,0.4,3.6-1.6,1.6C-510.3,406.5-514.7,406.9-514.3,404.5z"/>
	</g>
	<g>
		<path fill="#555555" d="M-534.8,404.5c-1.6,3.2-3.2,2.4-2-0.8c-1.6,2.4-5.1-2-2.4-3.2c-3.6,0-3.6-1.2-0.4-2.4
			c-2.8,0-0.8-5.5,1.6-3.6c-2-2.8-0.8-4,1.6-1.6c-1.2-2.8,4.3-3.6,4-0.4c1.6-3.2,3.2-2.4,2,0.8c1.6-2.4,5.1,2,2.4,3.2
			c3.6,0,3.6,1.2,0.4,2.4c2.8,0,0.8,5.5-1.6,3.6c2,2.8,0.8,4-1.6,1.6C-529.7,406.5-535.2,407.3-534.8,404.5z"/>
	</g>
	<g>
		<path fill="#555555" d="M-559.3,399c-1.6,3.6-3.2,2.8-2-0.8c-1.6,2.8-6.3-2.8-3.2-4c-4,0.4-4-1.2-0.4-2.4c-3.6,0-0.8-6.7,1.6-4.3
			c-2-3.2-0.8-4.3,1.6-1.6c-1.6-3.2,5.5-4,4.7-0.8c1.6-3.6,3.2-2.8,2,0.8c1.6-2.8,6.3,2.8,3.2,3.6c4-0.4,4,1.2,0.4,2.4
			c3.6,0,0.8,6.7-1.6,4.3c2,3.2,0.8,4.3-1.6,1.6C-553,401.4-560.1,402.2-559.3,399z"/>
	</g>
	<g>
		<path fill="#555555" d="M-585,392.7c-2,4-3.2,3.2-2-0.8c-2,3.2-7.1-3.2-3.6-4.3c-4.3,0.4-4.3-1.2-0.4-2.4c-4,0-0.8-7.5,2-5.1
			c-2.4-3.6-1.2-4.3,1.6-1.6c-2-3.2,6.3-4.3,5.5-0.8c2-4,3.2-3.2,2,0.8c2-3.2,7.1,3.2,3.6,4.3c4.3-0.4,4.3,1.2,0.4,2.4
			c4,0,0.8,7.9-2,5.1c2.4,3.6,1.2,4.3-1.6,1.6C-577.9,395.4-586.2,396.6-585,392.7z"/>
	</g>
	<g>
		<path fill="#555555" d="M-611.5,392.3c-2,4.3-3.6,3.6-2-0.8c-2,3.6-7.9-4-4-4.7c-4.7,0.4-4.7-1.2-0.4-2.4c-4.3,0-0.8-8.7,2.4-5.9
			c-2.8-4-1.6-4.7,1.6-1.6c-2-3.6,7.1-5.1,6.3-0.8c2-4.3,3.6-3.6,2,0.8c2-3.6,7.9,4,4,4.7c4.7-0.4,4.7,1.2,0.4,2.4
			c4.3,0,0.8,8.7-2.4,5.9c2.8,4,1.6,4.7-1.6,1.6C-603.2,394.7-612.7,396.2-611.5,392.3z"/>
	</g>
	<g>
		<path fill="#555555" d="M-631.7,381.6c-1.6,2.8-2.8,2.4-2-0.8c-1.6,2.4-4.7-2-2.4-2.8c-3.2,0-3.6-1.6-0.4-2.4
			c-2.8,0-0.8-5.1,1.2-3.2c-1.6-2.8-0.4-4,1.6-1.6c-1.2-2.4,4-3.2,3.6-0.4c1.6-2.8,3.2-2.4,2,0.8c1.6-2.4,4.7,2,2.4,2.8
			c3.2,0,3.6,1.6,0.4,2.4c2.8,0,0.8,5.1-1.2,3.2c1.6,2.8,0.4,3.6-1.6,1.6C-626.9,383.6-632.4,384.4-631.7,381.6z"/>
	</g>
	<g>
		<path fill="#555555" d="M-661.7,362.6c-1.6,2.4-2.8,2-2-0.8c-1.6,2-4-1.2-1.6-2c-2.8,0-3.2-1.6-0.4-2.4c-2.4-0.4-0.8-4,1.2-2.4
			c-2-2.4-0.8-3.6,1.2-1.6c-1.2-2.4,3.2-2.8,2.8-0.4c1.6-2.4,2.8-2,2,0.8c1.6-2,4,1.2,1.6,2c2.8,0,3.2,1.6,0.4,2.4
			c2.4,0.4,0.8,4-1.2,2.4c1.6,2.4,0.4,3.6-1.6,1.6C-658.1,364.6-662.1,365.4-661.7,362.6z"/>
	</g>
	<g>
		<path fill="#555555" d="M-678.7,363.4c-1.2,2-2.8,1.6-2-0.8c-1.2,1.6-2.4-0.4-0.8-1.2c-2.4,0-2.4-1.6-0.4-2.4
			c-2-0.4-0.8-2.4,0.4-1.2c-1.2-2,0-2.8,1.6-1.6c-0.8-1.6,1.6-2,1.6-0.4c1.2-2,2.8-1.6,2,0.8c1.2-1.6,2.4,0.4,0.8,1.2
			c2.4,0,2.4,1.6,0.4,2.4c2,0.4,0.8,2.4-0.4,1.2c1.2,2,0,2.8-1.6,1.6C-676.3,364.6-678.7,365-678.7,363.4z"/>
	</g>
	<g>
		<path fill="#555555" d="M-651,385.6c-1.6,3.2-3.2,2.8-2-0.8c-1.6,2.4-5.5-2.4-2.8-3.6c-3.6,0-4-1.2-0.4-2.4c-3.2,0-0.8-5.9,1.6-4
			c-2-3.2-0.8-4,1.6-1.6c-1.6-2.8,4.7-3.6,4.3-0.8c1.6-3.2,3.2-2.8,2,0.8c1.6-2.8,5.5,2.4,2.8,3.6c3.6,0,4,1.2,0.4,2.4
			c3.2,0,0.8,5.9-1.6,4c2,3.2,0.8,4-1.6,1.6C-645.1,387.5-651.4,388.3-651,385.6z"/>
	</g>
	<g>
		<path fill="#555555" d="M-632.8,404.9c-2,4-3.2,3.2-2-0.8c-2,3.2-7.1-3.2-3.6-4.3c-4.3,0.4-4.3-1.2-0.4-2c-3.6,0-0.8-7.5,2-5.1
			c-2.4-3.6-1.2-4.3,1.6-1.6c-2-3.2,6.3-4.3,5.1-0.8c2-4,3.2-3.2,2,0.8c2-3.2,7.1,3.2,3.6,4.3c4.3-0.4,4.3,1.2,0.4,2.4
			c3.6,0,0.8,7.5-2,5.1c2.4,3.6,1.2,4.3-1.6,1.6C-625.7,407.3-633.6,408.5-632.8,404.9z"/>
	</g>
	<g>
		<path fill="#555555" d="M-597.7,408.5c-1.6,3.2-3.2,2.8-2-0.8c-1.6,2.8-5.5-2-2.4-3.2c-3.6,0-4-1.2-0.4-2.4
			c-3.2,0-0.8-5.5,1.6-3.6c-2-3.2-0.8-4,1.6-1.6c-1.6-2.8,4.7-3.6,4-0.4c1.6-3.2,3.2-2.8,2,0.8c1.6-2.8,5.5,2,2.4,3.2
			c3.6,0,4,1.2,0.4,2.4c3.2,0,0.8,5.9-1.6,3.6c2,3.2,0.8,4-1.6,1.6C-592.1,410.5-598.1,411.7-597.7,408.5z"/>
	</g>
	<g>
		<path fill="#555555" d="M-616.2,420.7c-2,3.6-3.2,3.2-2-0.8c-2,3.2-6.3-2.8-3.2-4c-4,0.4-4.3-1.2-0.4-2.4c-3.6,0-0.8-6.7,2-4.3
			c-2-3.2-0.8-4.3,1.6-1.6c-1.6-3.2,5.5-4,4.7-0.8c2-3.6,3.2-3.2,2,0.8c2-3.2,6.3,2.8,3.2,4c4-0.4,4.3,1.2,0.4,2.4
			c3.6,0,0.8,6.7-2,4.3c2,3.2,0.8,4.3-1.6,1.6C-609.9,423.1-617,423.9-616.2,420.7z"/>
	</g>
	<g>
		<path fill="#555555" d="M-575.9,416c-1.6,3.2-3.2,2.8-2-0.8c-1.6,2.8-5.5-2.4-2.8-3.6c-3.6,0-4-1.2-0.4-2.4c-3.2,0-0.8-5.9,1.6-4
			c-2-3.2-0.8-4,1.6-1.6c-1.6-2.8,4.7-3.6,4.3-0.8c1.6-3.2,3.2-2.8,2,0.8c1.6-2.8,5.5,2.4,2.8,3.6c3.6,0,4,1.2,0.4,2.4
			c3.2,0,0.8,5.9-1.6,4c2,3.2,0.8,4-1.6,1.6C-570.4,418.4-576.7,419.2-575.9,416z"/>
	</g>
	<g>
		<path fill="#555555" d="M-551.8,423.1c-1.6,3.6-3.2,2.8-2-0.8c-1.6,2.8-5.9-2.8-2.8-3.6c-4,0-4-1.2-0.4-2.4
			c-3.2,0-0.8-6.3,1.6-4.3c-2-3.2-0.8-4.3,1.6-1.6c-1.6-2.8,5.1-4,4.3-0.8c1.6-3.6,3.2-2.8,2,0.8c1.6-2.8,5.9,2.4,2.8,3.6
			c4,0,4,1.2,0.4,2.4c3.2,0,0.8,6.3-1.6,4.3c2,3.2,0.8,4.3-1.6,1.6C-545.5,425.1-552.2,426.3-551.8,423.1z"/>
	</g>
	<g>
		<path fill="#555555" d="M-527.7,425.9c-1.6,2.8-2.8,2-2-0.8c-1.6,2-4.3-1.6-2-2.4c-3.2,0-3.2-1.6-0.4-2.4
			c-2.4-0.4-0.8-4.3,1.2-2.8c-1.6-2.8-0.4-3.6,1.6-1.6c-1.2-2.4,3.6-2.8,3.2-0.4c1.6-2.8,2.8-2,2,0.8c1.6-2,4.3,1.6,2,2.4
			c3.2,0,3.2,1.6,0.4,2.4c2.4,0,0.8,4.3-1.2,2.8c1.6,2.8,0.4,3.6-1.6,1.6C-523.3,427.9-528.1,428.3-527.7,425.9z"/>
	</g>
	<g>
		<path fill="#555555" d="M-509.1,423.1c-1.2,2.4-2.8,1.6-2-0.8c-1.2,1.6-3.2-0.8-1.2-1.6c-2.4,0-2.8-1.6-0.4-2.4
			c-2-0.4-0.8-3.2,0.8-2c-1.2-2.4,0-3.2,1.6-1.6c-0.8-2,2-2.4,2-0.4c1.2-2.4,2.8-1.6,2,0.8c1.2-1.6,3.2,0.8,1.2,1.6
			c2.4,0,2.8,1.6,0.4,2.4c2,0.4,0.8,3.2-0.8,2c1.2,2.4,0,3.2-1.6,1.6C-506.4,424.7-509.5,425.1-509.1,423.1z"/>
	</g>
	<g>
		<path fill="#555555" d="M-545.9,445.3c-1.6,3.2-3.2,2.8-2-0.8c-1.6,2.8-5.5-2.4-2.8-3.6c-3.6,0-4-1.2-0.4-2.4
			c-3.2,0-0.8-5.9,1.6-4c-2-3.2-0.8-4,1.6-1.6c-1.6-2.8,4.7-4,4.3-0.8c1.6-3.2,3.2-2.8,2,0.8c1.6-2.8,5.5,2.4,2.8,3.6
			c3.6,0,4,1.2,0.4,2.4c3.2,0,0.8,6.3-1.6,4c2,3.2,0.8,4-1.6,1.6C-540.3,447.2-546.7,448.4-545.9,445.3z"/>
	</g>
	<g>
		<path fill="#555555" d="M-525.7,441.3c-0.8,1.6-2.4,0.8-2-0.8c-0.8,0.8-1.2,0.4-0.4-0.4c-1.6,0-2-1.6-0.4-2.4
			c-1.2-0.4-1.2-0.8,0-0.4c-0.8-1.6,0.4-2.4,1.6-1.6c-0.4-1.2,0.4-1.2,0.4,0c0.8-1.6,2.4-0.8,2,0.8c0.8-0.8,1.2-0.4,0.4,0.4
			c1.6,0,2,1.6,0.4,2.4c1.2,0.4,1.2,0.8,0,0.4C-522.6,441.3-523.7,442.1-525.7,441.3C-524.9,442.5-525.3,442.5-525.7,441.3z"/>
	</g>
	<g>
		<path fill="#555555" d="M-560.9,460.3c-1.6,2.8-2.8,2-2-0.8c-1.6,2-4.3-1.6-2-2.4c-3.2,0-3.2-1.6-0.4-2.4c-2.8,0-0.8-4.7,1.2-2.8
			c-1.6-2.8-0.4-3.6,1.6-1.6c-1.2-2.4,3.6-3.2,3.2-0.4c1.6-2.8,2.8-2,2,0.8c1.6-2,4.3,1.6,2,2.4c3.2,0,3.2,1.6,0.4,2.4
			c2.8,0,0.8,4.7-1.2,2.8c1.6,2.8,0.4,3.6-1.6,1.6C-556.6,462.2-561.3,463-560.9,460.3z"/>
	</g>
	<g>
		<path fill="#555555" d="M-570.8,440.1c-2,4-3.2,3.2-2-0.8c-2,3.2-6.7-3.2-3.2-4.3c-4.3,0.4-4.3-1.2-0.4-2.4c-3.6,0-0.8-7.5,2-5.1
			c-2.4-3.6-1.2-4.3,1.6-1.6c-2-3.2,6.3-4.3,5.1-0.8c2-4,3.2-3.2,2,0.8c2-3.2,6.7,3.2,3.2,4.3c4.3-0.4,4.3,1.2,0.4,2.4
			c3.6,0,0.8,7.5-2,5.1c2.4,3.6,1.2,4.3-1.6,1.6C-563.7,442.5-571.6,443.7-570.8,440.1z"/>
	</g>
	<g>
		<path fill="#555555" d="M-594.5,430.2c-1.6,3.2-3.2,2.8-2-0.8c-1.6,2.8-5.5-2-2.4-3.2c-3.6,0-4-1.2-0.4-2.4c-3.2,0-0.8-5.9,1.6-4
			c-2-3.2-0.8-4,1.6-1.6c-1.6-2.8,4.7-3.6,4-0.4c1.6-3.2,3.2-2.8,2,0.8c1.6-2.8,5.5,2,2.4,3.2c3.6,0,4,1.2,0.4,2.4
			c3.2,0,0.8,5.5-1.6,3.6c2,3.2,0.8,4-1.6,1.6C-589,432.6-594.9,433.4-594.5,430.2z"/>
	</g>
	<g>
		<path fill="#555555" d="M-615.4,442.1c-1.6,3.6-3.2,2.8-2-0.8c-1.6,2.8-5.9-2.8-2.8-3.6c-4,0-4-1.2-0.4-2.4
			c-3.2,0-0.8-6.3,1.6-4.3c-2-3.2-0.8-4.3,1.6-1.6c-1.6-2.8,5.1-4,4.7-0.8c1.6-3.6,3.2-2.8,2,0.8c1.6-2.8,5.9,2.8,2.8,3.6
			c4,0,4,1.2,0.4,2.4c3.2,0,0.8,6.3-1.6,4.3c2,3.2,0.8,4.3-1.6,1.6C-609.1,444.1-616.2,445.3-615.4,442.1z"/>
	</g>
	<g>
		<path fill="#555555" d="M-590.1,450.8c-1.6,2.8-2.8,2.4-2-0.8c-1.6,2.4-4.7-2-2.4-2.8c-3.2,0-3.6-1.6-0.4-2.4
			c-2.8,0-0.8-5.1,1.2-3.2c-1.6-2.8-0.4-3.6,1.6-1.6c-1.2-2.4,4-3.2,3.6-0.4c1.6-2.8,2.8-2.4,2,0.8c1.6-2.4,4.7,2,2.4,2.8
			c3.2,0,3.6,1.6,0.4,2.4c2.8,0,0.8,5.1-1.2,3.2c1.6,2.8,0.4,3.6-1.6,1.6C-585.4,453.2-590.9,453.6-590.1,450.8z"/>
	</g>
	<g>
		<path fill="#555555" d="M-576.7,464.2c-1.2,2-2.8,1.6-2-0.8c-1.2,1.6-2.8-0.4-1.2-1.2c-2.4,0-2.8-1.6-0.4-2.4
			c-2-0.4-0.8-2.8,0.8-1.6c-1.2-2,0-3.2,1.6-1.6c-0.8-2,2-2.4,1.6-0.4c1.2-2,2.8-1.6,2,0.8c1.2-1.6,2.8,0.4,1.2,1.2
			c2.4,0,2.8,1.6,0.4,2.4c2,0.4,0.8,2.8-0.8,1.6c1.2,2,0,3.2-1.6,1.6C-574.3,465.8-576.7,466.2-576.7,464.2z"/>
	</g>
	<g>
		<path fill="#555555" d="M-592.5,464.6c-0.8,1.6-2.4,0.8-2-0.8c-0.8,0.8-1.2,0.4,0-0.4c-1.6,0-2-1.6-0.4-2.4
			c-1.2-0.4-1.2-0.8,0-0.4c-0.8-1.6,0.4-2.4,1.6-1.6c-0.4-1.2,0.4-1.2,0.4,0c0.8-1.6,2.4-0.8,2,0.8c0.8-0.8,1.2-0.4,0,0.4
			c1.6,0,2,1.6,0.4,2.4c1.2,0.4,1.2,0.8,0,0.4C-589.4,465-590.5,465.8-592.5,464.6C-591.7,465.8-592.1,466.2-592.5,464.6z"/>
	</g>
	<g>
		<path fill="#555555" d="M-610.3,462.2c-1.6,3.2-3.2,2.8-2-0.8c-1.6,2.8-5.5-2.4-2.4-3.2c-3.6,0-4-1.2-0.4-2.4
			c-3.2,0-0.8-5.5,1.6-3.6c-2-3.2-0.8-4,1.6-1.6c-1.6-2.8,4.7-3.6,4-0.4c1.6-3.2,3.2-2.8,2,0.8c1.6-2.8,5.5,2,2.4,3.2
			c3.6,0,4,1.2,0.4,2.4c3.2,0,0.8,5.9-1.6,3.6c2,3.2,0.8,4-1.6,1.6C-604.8,464.2-610.7,465.4-610.3,462.2z"/>
	</g>
	<g>
		<path fill="#555555" d="M-634.8,452c-1.6,2.8-2.8,2.4-2-0.8c-1.6,2.4-4.3-1.6-2-2.8c-3.2,0-3.6-1.6-0.4-2.4
			c-2.8,0-0.8-4.7,1.2-3.2c-1.6-2.8-0.4-3.6,1.6-1.6c-1.2-2.4,3.6-3.2,3.2-0.4c1.6-2.8,2.8-2.4,2,0.8c1.6-2.4,4.3,1.6,2,2.4
			c3.2,0,3.6,1.6,0.4,2.4c2.8,0,0.8,4.7-1.2,3.2c1.6,2.8,0.4,3.6-1.6,1.6C-630.5,453.9-635.2,454.7-634.8,452z"/>
	</g>
	<g>
		<path fill="#555555" d="M-638,427.1c-1.6,3.2-3.2,2.8-2-0.8c-1.6,2.8-5.5-2.4-2.8-3.6c-3.6,0-4-1.2-0.4-2.4c-3.2,0-0.8-5.9,1.6-4
			c-2-3.2-0.8-4,1.6-1.6c-1.6-2.8,4.7-4,4.3-0.8c1.6-3.2,3.2-2.8,2,0.8c1.6-2.8,5.5,2.4,2.8,3.6c3.6,0,4,1.2,0.4,2.4
			c3.2,0,0.8,6.3-1.6,4c2,3.2,0.8,4-1.6,1.6C-632,429.4-638.4,430.2-638,427.1z"/>
	</g>
	<g>
		<path fill="#555555" d="M-651,437.3c-1.6,2.4-2.8,2-2-0.8c-1.2,2-4-1.2-1.6-2c-2.8,0-3.2-1.6-0.4-2.4c-2.4-0.4-0.8-4,0.8-2.4
			c-1.6-2.4-0.4-3.6,1.6-1.6c-1.2-2,2.8-2.8,2.8-0.4c1.6-2.4,2.8-2,2,0.8c1.2-2,4,1.2,1.6,2c2.8,0,3.2,1.6,0.4,2.4
			c2.4,0.4,0.8,4-0.8,2.4c1.6,2.4,0.4,3.6-1.6,1.6C-647.5,438.9-651.4,439.7-651,437.3z"/>
	</g>
	<g>
		<path fill="#555555" d="M-666.4,428.3c-1.2,2-2.8,1.6-2-0.8c-1.2,1.6-2.4-0.4-0.8-1.2c-2.4,0-2.4-1.6-0.4-2.4
			c-2-0.4-0.8-2.4,0.4-1.2c-1.2-2,0-2.8,1.6-1.6c-0.8-1.6,1.6-2,1.6-0.4c1.2-2,2.8-1.6,2,0.8c1.2-1.6,2.4,0.4,0.8,1.2
			c2.4,0,2.4,1.6,0.4,2.4c2,0.4,0.8,2.4-0.4,1.6c1.2,2,0,2.8-1.6,1.6C-664.1,429.8-666.4,430.2-666.4,428.3z"/>
	</g>
	<g>
		<path fill="#555555" d="M-654.2,409.3c-1.6,3.2-3.2,2.8-2-0.8c-1.6,2.8-5.5-2.4-2.8-3.2c-3.6,0-4-1.2-0.4-2.4
			c-3.2,0-0.8-5.9,1.6-4c-2-3.2-0.8-4,1.6-1.6c-1.6-2.8,4.7-3.6,4.3-0.8c1.6-3.2,3.2-2.8,2,0.8c1.6-2.8,5.5,2.4,2.8,3.2
			c3.6,0,4,1.2,0.4,2.4c3.2,0,0.8,5.9-1.6,4c2,3.2,0.8,4-1.6,1.6C-648.6,411.3-654.6,412-654.2,409.3z"/>
	</g>
	<g>
		<path fill="#555555" d="M-667.6,386c-1.2,2.4-2.8,1.6-2-0.8c-1.2,1.6-3.6-0.8-1.2-1.6c-2.8,0-2.8-1.6-0.4-2.4
			c-2-0.4-0.8-3.6,0.8-2c-1.2-2.4,0-3.2,1.6-1.6c-1.2-2,2.4-2.4,2,0c1.2-2.4,2.8-1.6,2,0.8c1.2-1.6,3.6,0.8,1.2,1.6
			c2.8,0,2.8,1.6,0.4,2.4c2,0.4,0.8,3.2-0.8,2c1.2,2.4,0,3.2-1.6,1.6C-664.9,387.5-668,388.3-667.6,386z"/>
	</g>
	<g>
		<path fill="#555555" d="M-681.9,388.3c-1.2,2-2.4,1.2-2-0.8c-1.2,1.2-2.4-0.4-0.8-1.2c-2.4,0-2.4-1.6-0.4-2.4
			c-1.6-0.4-0.8-2,0.4-1.2c-1.2-2,0-2.8,1.6-1.6c-0.4-1.6,1.2-2,1.2,0c1.2-2,2.4-1.2,2,0.8c1.6-1.2,2.8,0.4,1.2,1.2
			c2.4,0,2.4,1.6,0.4,2.4c1.6,0.4,0.8,2-0.4,1.2c1.2,2,0,2.8-1.6,1.6C-679.9,389.9-681.9,389.9-681.9,388.3z"/>
	</g>
	<g>
		<path fill="#555555" d="M-672.4,408.1c-1.2,2.4-2.8,1.6-2-0.8c-1.2,1.6-3.2-0.8-1.2-1.6c-2.8,0-2.8-1.6-0.4-2.4
			c-2.4-0.4-1.2-3.2,0.8-2c-1.2-2.4,0-3.2,1.6-1.6c-0.8-2,2.4-2.4,2-0.4c1.2-2.4,2.8-1.6,2,0.8c1.2-1.6,3.2,0.8,1.2,1.6
			c2.8,0,2.8,1.6,0.4,2.4c2,0.4,0.8,3.2-0.8,2c1.2,2.4,0,3.2-1.6,1.6C-669.2,409.7-672.4,410.1-672.4,408.1z"/>
	</g>
</g>
</svg>
