<?xml version="1.0" encoding="utf-8"?>
<!-- Generator: Adobe Illustrator 18.1.1, SVG Export Plug-In . SVG Version: 6.00 Build 0)  -->
<svg version="1.1" id="Layer_1" xmlns="http://www.w3.org/2000/svg" xmlns:xlink="http://www.w3.org/1999/xlink" x="0px" y="0px"
	 width="80px" height="80px" viewBox="0 0 80 80" enable-background="new 0 0 80 80" xml:space="preserve">
<g id="Female_Face_21">
	<polygon display="none" fill="none" points="64.9,3.4 150.9,3.4 150.9,125.4 64.9,125.4 	"/>
</g>
<g>
	<g>
		<g>
			<g>
				<path fill="#FFFFFF" d="M28.6,47c0,3.1-0.7,6.1-3.8,6.1c-4,0-6.3-5.9-6.3-9c0-3.1,1.4-2.7,4.5-2.7S28.6,43.9,28.6,47z"/>
				<path d="M24.8,53.8c-4.5,0-6.9-6.4-6.9-9.6c0-3.1,1.6-3.4,3.6-3.4c0.2,0,0.5,0,0.7,0c0.3,0,0.6,0,0.9,0c3.4,0,6.3,2.8,6.3,6.2
					C29.3,52.6,26.8,53.8,24.8,53.8z M21.5,42.1c-1.8,0-2.3,0.1-2.3,2.1c0,1.3,0.5,3.4,1.5,5.3c0.8,1.4,2.1,3,4,3
					c0.8,0,3.1,0,3.1-5.5c0-2.7-2.2-4.9-4.9-4.9c-0.3,0-0.6,0-0.9,0C21.9,42.1,21.7,42.1,21.5,42.1z"/>
			</g>
		</g>
	</g>
	<g>
		<g>
			<g>
				<path fill="#FFFFFF" d="M51.4,47c0,3.1,0.7,6.1,3.8,6.1c4,0,6.3-5.9,6.3-9c0-3.1-1.4-2.7-4.5-2.7C53.9,41.4,51.4,43.9,51.4,47z"
					/>
				<path d="M55.2,53.8c-2,0-4.5-1.2-4.5-6.8c0-3.4,2.8-6.2,6.2-6.2l0.1,0c0.3,0,0.6,0,0.8,0c0.2,0,0.5,0,0.7,0c2,0,3.6,0.2,3.6,3.4
					C62.1,47.4,59.7,53.8,55.2,53.8z M56.9,42.1c-2.7,0-4.8,2.2-4.8,4.9c0,5.5,2.4,5.5,3.1,5.5c1.9,0,3.3-1.6,4-3
					c1.1-1.9,1.5-4,1.5-5.3c0-2-0.5-2.1-2.3-2.1c-0.2,0-0.4,0-0.7,0C57.6,42.1,57.3,42.1,56.9,42.1L56.9,42.1z"/>
			</g>
		</g>
	</g>
	<g id="Female_Face_1_">
		<g>
			<path fill="#FFFFFF" d="M58.4,39c0-14.6-6.7-21.2-18.4-21.2S21.6,24.4,21.6,39s3,31.8,18.4,31.8S58.4,53.6,58.4,39z"/>
			<path d="M40,71.5c-12.6,0-19.1-10.9-19.1-32.5c0-14.5,6.4-21.9,19.1-21.9S59.1,24.5,59.1,39C59.1,60.6,52.7,71.5,40,71.5z
				 M40,18.5c-11.8,0-17.7,6.9-17.7,20.5c0,20.7,6,31.2,17.7,31.2S57.7,59.7,57.7,39C57.7,25.4,51.8,18.5,40,18.5z"/>
		</g>
	</g>
	<g>
		<g>
			<g>
				<g>
					<circle cx="31.4" cy="43.7" r="1.6"/>
				</g>
			</g>
		</g>
		<g>
			<g>
				<g>
					<circle cx="49.2" cy="43.7" r="1.6"/>
				</g>
			</g>
		</g>
	</g>
	<g opacity="0.5" enable-background="new    ">
		<g>
			<defs>
				<path id="SVGID_7_" d="M48.8,58.3c-0.6,0-1.2-0.4-1.3-1c0-0.1,0-0.2,0-0.3l0,0c-0.1,0-0.3-0.1-0.6-0.2c-1.8-0.5-3.7-0.8-6.7-0.8
					c-3,0-4.9,0.2-6.7,0.8c-0.3,0.1-0.5,0.2-0.6,0.2l0,0c0,0.1,0,0.2,0,0.3c-0.2,0.7-0.9,1.2-1.6,1c-0.7-0.2-1.2-0.9-1-1.6
					c0-0.1,0-0.1,0-0.2c0.3-1.2,0.8-1.7,2.4-2.2c2.6-0.8,5.1-0.9,7.5-0.9s5,0.1,7.5,0.9c1.6,0.5,2.2,1,2.4,2.2c0,0,0,0.1,0,0.2
					c0.2,0.7-0.3,1.4-1,1.6C49,58.3,48.9,58.3,48.8,58.3z"/>
			</defs>
			<clipPath id="SVGID_2_">
				<use xlink:href="#SVGID_7_"  overflow="visible"/>
			</clipPath>
			<g clip-path="url(#SVGID_2_)">
				<g>
					<rect x="60" y="35.9" width="0.4" height="28.4"/>
				</g>
				<g>
					<rect x="59.1" y="35.9" width="0.4" height="28.4"/>
				</g>
				<g>
					<rect x="58.2" y="35.9" width="0.4" height="28.4"/>
				</g>
				<g>
					<rect x="57.3" y="35.9" width="0.4" height="28.4"/>
				</g>
				<g>
					<rect x="56.4" y="35.9" width="0.4" height="28.4"/>
				</g>
				<g>
					<rect x="55.5" y="35.9" width="0.4" height="28.4"/>
				</g>
				<g>
					<rect x="54.6" y="35.9" width="0.4" height="28.4"/>
				</g>
				<g>
					<rect x="53.7" y="35.9" width="0.4" height="28.4"/>
				</g>
				<g>
					<rect x="52.9" y="35.9" width="0.4" height="28.4"/>
				</g>
				<g>
					<rect x="52" y="35.9" width="0.4" height="28.4"/>
				</g>
				<g>
					<rect x="51.1" y="35.9" width="0.4" height="28.4"/>
				</g>
				<g>
					<rect x="50.2" y="35.9" width="0.4" height="28.4"/>
				</g>
				<g>
					<rect x="49.3" y="35.9" width="0.4" height="28.4"/>
				</g>
				<g>
					<rect x="48.4" y="35.9" width="0.4" height="28.4"/>
				</g>
				<g>
					<rect x="47.5" y="35.9" width="0.4" height="28.4"/>
				</g>
				<g>
					<rect x="46.7" y="35.9" width="0.4" height="28.4"/>
				</g>
				<g>
					<rect x="45.8" y="35.9" width="0.4" height="28.4"/>
				</g>
				<g>
					<rect x="44.9" y="35.9" width="0.4" height="28.4"/>
				</g>
				<g>
					<rect x="44" y="35.9" width="0.4" height="28.4"/>
				</g>
				<g>
					<rect x="43.1" y="35.9" width="0.4" height="28.4"/>
				</g>
				<g>
					<rect x="42.2" y="35.9" width="0.4" height="28.4"/>
				</g>
				<g>
					<rect x="41.3" y="35.9" width="0.4" height="28.4"/>
				</g>
				<g>
					<rect x="40.4" y="35.9" width="0.4" height="28.4"/>
				</g>
				<g>
					<rect x="39.6" y="35.9" width="0.4" height="28.4"/>
				</g>
				<g>
					<rect x="38.7" y="35.9" width="0.4" height="28.4"/>
				</g>
				<g>
					<rect x="37.8" y="35.9" width="0.4" height="28.4"/>
				</g>
				<g>
					<rect x="36.9" y="35.9" width="0.4" height="28.4"/>
				</g>
				<g>
					<rect x="36" y="35.9" width="0.4" height="28.4"/>
				</g>
				<g>
					<rect x="35.1" y="35.9" width="0.4" height="28.4"/>
				</g>
				<g>
					<rect x="34.2" y="35.9" width="0.4" height="28.4"/>
				</g>
				<g>
					<rect x="33.3" y="35.9" width="0.4" height="28.4"/>
				</g>
				<g>
					<rect x="32.5" y="35.9" width="0.4" height="28.4"/>
				</g>
				<g>
					<rect x="31.6" y="35.9" width="0.4" height="28.4"/>
				</g>
				<g>
					<rect x="30.7" y="35.9" width="0.4" height="28.4"/>
				</g>
				<g>
					<rect x="29.8" y="35.9" width="0.4" height="28.4"/>
				</g>
				<g>
					<rect x="28.9" y="35.9" width="0.4" height="28.4"/>
				</g>
				<g>
					<rect x="28" y="35.9" width="0.4" height="28.4"/>
				</g>
				<g>
					<rect x="27.1" y="35.9" width="0.4" height="28.4"/>
				</g>
				<g>
					<rect x="26.3" y="35.9" width="0.4" height="28.4"/>
				</g>
				<g>
					<rect x="25.4" y="35.9" width="0.4" height="28.4"/>
				</g>
				<g>
					<rect x="24.5" y="35.9" width="0.4" height="28.4"/>
				</g>
				<g>
					<rect x="23.6" y="35.9" width="0.4" height="28.4"/>
				</g>
				<g>
					<rect x="22.7" y="35.9" width="0.4" height="28.4"/>
				</g>
				<g>
					<rect x="21.8" y="35.9" width="0.4" height="28.4"/>
				</g>
				<g>
					<rect x="20.9" y="35.9" width="0.4" height="28.4"/>
				</g>
				<g>
					<rect x="20" y="35.9" width="0.4" height="28.4"/>
				</g>
			</g>
		</g>
	</g>
	<g>
		<g>
			<g>
				<path d="M40.4,60.2c-2.2,0-4.4-0.5-6.4-1.6c-0.3-0.2-0.4-0.6-0.3-0.9s0.6-0.4,0.9-0.3c1.8,1,3.8,1.5,5.8,1.5c2,0,4-0.5,5.8-1.5
					c0.3-0.2,0.7-0.1,0.9,0.3c0.2,0.3,0.1,0.7-0.3,0.9C44.8,59.6,42.5,60.2,40.4,60.2z"/>
			</g>
		</g>
	</g>
	<g opacity="0.5" enable-background="new    ">
		<g>
			<defs>
				<path id="SVGID_9_" d="M22.1,49.4c0,0,3.4,3.8,5.9,7.3c2.5,3.5,1.3,5.1,4.9,6.9c2.9,1.4,2.1-0.3,7.4-0.3s5.3,1.9,7.8,0.3
					c2.6-1.6,1.9-3.3,4.4-6.9c2.5-3.5,5.9-7.3,5.9-7.3s-2.2,21.5-18.2,21.5C23.2,70.9,22.1,49.4,22.1,49.4z"/>
			</defs>
			<clipPath id="SVGID_4_">
				<use xlink:href="#SVGID_9_"  overflow="visible"/>
			</clipPath>
			<g clip-path="url(#SVGID_4_)">
				<g>
					<rect x="60" y="47" width="0.4" height="28.4"/>
				</g>
				<g>
					<rect x="59.1" y="47" width="0.4" height="28.4"/>
				</g>
				<g>
					<rect x="57.3" y="47" width="0.4" height="28.4"/>
				</g>
				<g>
					<rect x="57.3" y="47" width="0.4" height="28.4"/>
				</g>
				<g>
					<rect x="56.4" y="47" width="0.4" height="28.4"/>
				</g>
				<g>
					<rect x="55.5" y="47" width="0.4" height="28.4"/>
				</g>
				<g>
					<rect x="54.6" y="47" width="0.4" height="28.4"/>
				</g>
				<g>
					<rect x="53.7" y="47" width="0.4" height="28.4"/>
				</g>
				<g>
					<rect x="52.9" y="47" width="0.4" height="28.4"/>
				</g>
				<g>
					<rect x="52" y="47" width="0.4" height="28.4"/>
				</g>
				<g>
					<rect x="51.1" y="47" width="0.4" height="28.4"/>
				</g>
				<g>
					<rect x="50.2" y="47" width="0.4" height="28.4"/>
				</g>
				<g>
					<rect x="49.3" y="47" width="0.4" height="28.4"/>
				</g>
				<g>
					<rect x="48.4" y="47" width="0.4" height="28.4"/>
				</g>
				<g>
					<rect x="47.5" y="47" width="0.4" height="28.4"/>
				</g>
				<g>
					<rect x="46.7" y="47" width="0.4" height="28.4"/>
				</g>
				<g>
					<rect x="45.8" y="47" width="0.4" height="28.4"/>
				</g>
				<g>
					<rect x="44.9" y="47" width="0.4" height="28.4"/>
				</g>
				<g>
					<rect x="44" y="47" width="0.4" height="28.4"/>
				</g>
				<g>
					<rect x="43.1" y="47" width="0.4" height="28.4"/>
				</g>
				<g>
					<rect x="42.2" y="47" width="0.4" height="28.4"/>
				</g>
				<g>
					<rect x="41.3" y="47" width="0.4" height="28.4"/>
				</g>
				<g>
					<rect x="40.4" y="47" width="0.4" height="28.4"/>
				</g>
				<g>
					<rect x="39.6" y="47" width="0.4" height="28.4"/>
				</g>
				<g>
					<rect x="38.7" y="47" width="0.4" height="28.4"/>
				</g>
				<g>
					<rect x="37.8" y="47" width="0.4" height="28.4"/>
				</g>
				<g>
					<rect x="36.9" y="47" width="0.4" height="28.4"/>
				</g>
				<g>
					<rect x="36" y="47" width="0.4" height="28.4"/>
				</g>
				<g>
					<rect x="35.1" y="47" width="0.4" height="28.4"/>
				</g>
				<g>
					<rect x="34.2" y="47" width="0.4" height="28.4"/>
				</g>
				<g>
					<rect x="33.3" y="47" width="0.4" height="28.4"/>
				</g>
				<g>
					<rect x="32.5" y="47" width="0.4" height="28.4"/>
				</g>
				<g>
					<rect x="31.6" y="47" width="0.4" height="28.4"/>
				</g>
				<g>
					<rect x="30.7" y="47" width="0.4" height="28.4"/>
				</g>
				<g>
					<rect x="29.8" y="47" width="0.4" height="28.4"/>
				</g>
				<g>
					<rect x="28.9" y="47" width="0.4" height="28.4"/>
				</g>
				<g>
					<rect x="28" y="47" width="0.4" height="28.4"/>
				</g>
				<g>
					<rect x="27.1" y="47" width="0.4" height="28.4"/>
				</g>
				<g>
					<rect x="26.3" y="47" width="0.4" height="28.4"/>
				</g>
				<g>
					<rect x="25.4" y="47" width="0.4" height="28.4"/>
				</g>
				<g>
					<rect x="24.5" y="47" width="0.4" height="28.4"/>
				</g>
				<g>
					<rect x="23.6" y="47" width="0.4" height="28.4"/>
				</g>
				<g>
					<rect x="22.7" y="47" width="0.4" height="28.4"/>
				</g>
				<g>
					<rect x="21.8" y="47" width="0.4" height="28.4"/>
				</g>
				<g>
					<rect x="20.9" y="47" width="0.4" height="28.4"/>
				</g>
				<g>
					<rect x="20" y="47" width="0.4" height="28.4"/>
				</g>
			</g>
		</g>
	</g>
	<g opacity="0.5" enable-background="new    ">
		<g>
			<defs>
				<polygon id="SVGID_11_" points="36.9,59.4 40.4,59.4 44,59.2 44,62.1 36.9,62.1 				"/>
			</defs>
			<clipPath id="SVGID_6_">
				<use xlink:href="#SVGID_11_"  overflow="visible"/>
			</clipPath>
			<g clip-path="url(#SVGID_6_)">
				<g>
					<rect x="60" y="47" width="0.4" height="28.4"/>
				</g>
				<g>
					<rect x="59.1" y="47" width="0.4" height="28.4"/>
				</g>
				<g>
					<rect x="58.2" y="47" width="0.4" height="28.4"/>
				</g>
				<g>
					<rect x="57.3" y="47" width="0.4" height="28.4"/>
				</g>
				<g>
					<rect x="56.4" y="47" width="0.4" height="28.4"/>
				</g>
				<g>
					<rect x="55.5" y="47" width="0.4" height="28.4"/>
				</g>
				<g>
					<rect x="54.6" y="47" width="0.4" height="28.4"/>
				</g>
				<g>
					<rect x="53.7" y="47" width="0.4" height="28.4"/>
				</g>
				<g>
					<rect x="52.9" y="47" width="0.4" height="28.4"/>
				</g>
				<g>
					<rect x="52" y="47" width="0.4" height="28.4"/>
				</g>
				<g>
					<rect x="51.1" y="47" width="0.4" height="28.4"/>
				</g>
				<g>
					<rect x="50.2" y="47" width="0.4" height="28.4"/>
				</g>
				<g>
					<rect x="49.3" y="47" width="0.4" height="28.4"/>
				</g>
				<g>
					<rect x="48.4" y="47" width="0.4" height="28.4"/>
				</g>
				<g>
					<rect x="47.5" y="47" width="0.4" height="28.4"/>
				</g>
				<g>
					<rect x="46.7" y="47" width="0.4" height="28.4"/>
				</g>
				<g>
					<rect x="45.8" y="47" width="0.4" height="28.4"/>
				</g>
				<g>
					<rect x="44.9" y="47" width="0.4" height="28.4"/>
				</g>
				<g>
					<rect x="44" y="47" width="0.4" height="28.4"/>
				</g>
				<g>
					<rect x="43.1" y="47" width="0.4" height="28.4"/>
				</g>
				<g>
					<rect x="42.2" y="47" width="0.4" height="28.4"/>
				</g>
				<g>
					<rect x="41.3" y="47" width="0.4" height="28.4"/>
				</g>
				<g>
					<rect x="40.4" y="47" width="0.4" height="28.4"/>
				</g>
				<g>
					<rect x="39.6" y="47" width="0.4" height="28.4"/>
				</g>
				<g>
					<rect x="38.7" y="47" width="0.4" height="28.4"/>
				</g>
				<g>
					<rect x="37.8" y="47" width="0.4" height="28.4"/>
				</g>
				<g>
					<rect x="36.9" y="47" width="0.4" height="28.4"/>
				</g>
				<g>
					<rect x="36" y="47" width="0.4" height="28.4"/>
				</g>
				<g>
					<rect x="35.1" y="47" width="0.4" height="28.4"/>
				</g>
				<g>
					<rect x="34.2" y="47" width="0.4" height="28.4"/>
				</g>
				<g>
					<rect x="33.3" y="47" width="0.4" height="28.4"/>
				</g>
				<g>
					<rect x="32.5" y="47" width="0.4" height="28.4"/>
				</g>
				<g>
					<rect x="31.6" y="47" width="0.4" height="28.4"/>
				</g>
				<g>
					<rect x="30.7" y="47" width="0.4" height="28.4"/>
				</g>
				<g>
					<rect x="29.8" y="47" width="0.4" height="28.4"/>
				</g>
				<g>
					<rect x="28.9" y="47" width="0.4" height="28.4"/>
				</g>
				<g>
					<rect x="28" y="47" width="0.4" height="28.4"/>
				</g>
				<g>
					<rect x="27.1" y="47" width="0.4" height="28.4"/>
				</g>
				<g>
					<rect x="26.3" y="47" width="0.4" height="28.4"/>
				</g>
				<g>
					<rect x="25.4" y="47" width="0.4" height="28.4"/>
				</g>
				<g>
					<rect x="24.5" y="47" width="0.4" height="28.4"/>
				</g>
				<g>
					<rect x="23.6" y="47" width="0.4" height="28.4"/>
				</g>
				<g>
					<rect x="22.7" y="47" width="0.4" height="28.4"/>
				</g>
				<g>
					<rect x="21.8" y="47" width="0.4" height="28.4"/>
				</g>
				<g>
					<rect x="20.9" y="47" width="0.4" height="28.4"/>
				</g>
				<g>
					<rect x="20" y="47" width="0.4" height="28.4"/>
				</g>
			</g>
		</g>
	</g>
	<g>
		<path d="M50.3,23.2c-3.8,0-5.2,3.1-11.3,3.1s-6.1-3.8-10.9-2c-5.9,2.1-6.3,11-6.3,19.9c0,0-4.7-10.5-3.7-15.7
			c0.5-2.7,2.3-1.4,2.3-5.1c0-4.5,2.9-7.6,12.4-11.6c3.7-1.6,10.9-4.3,16.9-2.8c8.5,2,5.5,8.4,6.1,8.9c0.6,0.5,3.5,2.7,4,8.5
			C60.8,37,58,44,58,44S58.4,23.2,50.3,23.2z"/>
	</g>
	<g>
		<g>
			<g>
				<g>
					<path d="M44.6,39.5c-0.2,0-0.5-0.1-0.6-0.4c-0.2-0.3,0-0.7,0.3-0.9c0.1,0,1.9-1,4.7-1c2.8,0,5.4,0.9,5.5,0.9
						c0.3,0.1,0.5,0.5,0.4,0.8c-0.1,0.3-0.5,0.5-0.8,0.4c0,0-2.6-0.9-5.1-0.9c-2.5,0-4.1,0.8-4.1,0.8C44.8,39.5,44.7,39.5,44.6,39.5
						z"/>
				</g>
			</g>
		</g>
		<g>
			<g>
				<g>
					<path d="M36.3,39.5c-0.1,0-0.2,0-0.3-0.1c0,0-1.6-0.8-4.1-0.8c-2.6,0-5.1,0.8-5.1,0.9c-0.3,0.1-0.7-0.1-0.8-0.4
						c-0.1-0.3,0.1-0.7,0.4-0.8c0.1,0,2.8-0.9,5.5-0.9c2.8,0,4.7,0.9,4.7,1c0.3,0.2,0.5,0.6,0.3,0.9C36.8,39.4,36.6,39.5,36.3,39.5z
						"/>
				</g>
			</g>
		</g>
	</g>
	<g>
		<path d="M45.8,24.5c0,0-4.9-3-11.7-1.3c-6.8,1.6-7.2,7-7.2,7s-0.6-6.9,7-8.5C38.8,20.8,43.9,22,45.8,24.5z"/>
	</g>
</g>
</svg>
