<?xml version="1.0" encoding="UTF-8" standalone="no"?>
<svg width="24px" height="24px" viewBox="0 0 24 24" version="1.1" xmlns="http://www.w3.org/2000/svg" xmlns:xlink="http://www.w3.org/1999/xlink">
    <!-- Generator: Sketch 41.2 (35397) - http://www.bohemiancoding.com/sketch -->
    <title>Maximize</title>
    <desc>Created with Sketch.</desc>
    <defs></defs>
    <g id="Page-1" stroke="none" stroke-width="1" fill="none" fill-rule="evenodd">
        <g id="Maximize" fill="#323232">
            <path d="M12.1116071,14.4285714 C12.1116071,14.5446434 12.0669647,14.647321 11.9776786,14.7366071 L7.53125,19.1830357 L9.45982143,21.1116071 C9.62946513,21.2812508 9.71428571,21.4821417 9.71428571,21.7142857 C9.71428571,21.9464297 9.62946513,22.1473206 9.45982143,22.3169643 C9.29017772,22.486608 9.08928687,22.5714286 8.85714286,22.5714286 L2.85714286,22.5714286 C2.62499884,22.5714286 2.42410799,22.486608 2.25446429,22.3169643 C2.08482058,22.1473206 2,21.9464297 2,21.7142857 L2,15.7142857 C2,15.4821417 2.08482058,15.2812508 2.25446429,15.1116071 C2.42410799,14.9419634 2.62499884,14.8571429 2.85714286,14.8571429 C3.08928688,14.8571429 3.29017772,14.9419634 3.45982143,15.1116071 L5.38839286,17.0401786 L9.83482143,12.59375 C9.92410759,12.5044638 10.0267851,12.4598214 10.1428571,12.4598214 C10.2589292,12.4598214 10.3616067,12.5044638 10.4508929,12.59375 L11.9776786,14.1205357 C12.0669647,14.2098219 12.1116071,14.3124994 12.1116071,14.4285714 Z M22.5714286,2.85714286 L22.5714286,8.85714286 C22.5714286,9.08928687 22.486608,9.29017772 22.3169643,9.45982143 C22.1473206,9.62946513 21.9464297,9.71428571 21.7142857,9.71428571 C21.4821417,9.71428571 21.2812508,9.62946513 21.1116071,9.45982143 L19.1830357,7.53125 L14.7366071,11.9776786 C14.647321,12.0669647 14.5446434,12.1116071 14.4285714,12.1116071 C14.3124994,12.1116071 14.2098219,12.0669647 14.1205357,11.9776786 L12.59375,10.4508929 C12.5044638,10.3616067 12.4598214,10.2589292 12.4598214,10.1428571 C12.4598214,10.0267851 12.5044638,9.92410759 12.59375,9.83482143 L17.0401786,5.38839286 L15.1116071,3.45982143 C14.9419634,3.29017772 14.8571429,3.08928687 14.8571429,2.85714286 C14.8571429,2.62499884 14.9419634,2.42410799 15.1116071,2.25446429 C15.2812508,2.08482058 15.4821417,2 15.7142857,2 L21.7142857,2 C21.9464297,2 22.1473206,2.08482058 22.3169643,2.25446429 C22.486608,2.42410799 22.5714286,2.62499884 22.5714286,2.85714286 Z" id="ï¥-copy"></path>
        </g>
    </g>
</svg>