<?xml version="1.0" encoding="UTF-8" standalone="no"?>
<svg width="24px" height="24px" viewBox="0 0 24 24" version="1.1" xmlns="http://www.w3.org/2000/svg" xmlns:xlink="http://www.w3.org/1999/xlink">
    <!-- Generator: Sketch 41.2 (35397) - http://www.bohemiancoding.com/sketch -->
    <title>Minimize</title>
    <desc>Created with Sketch.</desc>
    <defs></defs>
    <g id="Page-1" stroke="none" stroke-width="1" fill="none" fill-rule="evenodd">
        <g id="Minimize" fill="#323232">
            <path d="M12.1116071,12.96875 L12.1116071,18.96875 C12.1116071,19.200894 12.0267866,19.4017849 11.8571429,19.5714286 C11.6874992,19.7410723 11.4866083,19.8258929 11.2544643,19.8258929 C11.0223203,19.8258929 10.8214294,19.7410723 10.6517857,19.5714286 L8.72321429,17.6428571 L4.27678571,22.0892857 C4.18749955,22.1785719 4.08482201,22.2232143 3.96875,22.2232143 C3.85267799,22.2232143 3.75000045,22.1785719 3.66071429,22.0892857 L2.13392857,20.5625 C2.04464241,20.4732138 2,20.3705363 2,20.2544643 C2,20.1383923 2.04464241,20.0357147 2.13392857,19.9464286 L6.58035714,15.5 L4.65178571,13.5714286 C4.48214201,13.4017849 4.39732143,13.200894 4.39732143,12.96875 C4.39732143,12.736606 4.48214201,12.5357151 4.65178571,12.3660714 C4.82142942,12.1964277 5.02232027,12.1116071 5.25446429,12.1116071 L11.2544643,12.1116071 C11.4866083,12.1116071 11.6874992,12.1964277 11.8571429,12.3660714 C12.0267866,12.5357151 12.1116071,12.736606 12.1116071,12.96875 Z M22.2232143,3.96875 C22.2232143,4.08482201 22.1785719,4.18749955 22.0892857,4.27678571 L17.6428571,8.72321429 L19.5714286,10.6517857 C19.7410723,10.8214294 19.8258929,11.0223203 19.8258929,11.2544643 C19.8258929,11.4866083 19.7410723,11.6874992 19.5714286,11.8571429 C19.4017849,12.0267866 19.200894,12.1116071 18.96875,12.1116071 L12.96875,12.1116071 C12.736606,12.1116071 12.5357151,12.0267866 12.3660714,11.8571429 C12.1964277,11.6874992 12.1116071,11.4866083 12.1116071,11.2544643 L12.1116071,5.25446429 C12.1116071,5.02232027 12.1964277,4.82142942 12.3660714,4.65178571 C12.5357151,4.48214201 12.736606,4.39732143 12.96875,4.39732143 C13.200894,4.39732143 13.4017849,4.48214201 13.5714286,4.65178571 L15.5,6.58035714 L19.9464286,2.13392857 C20.0357147,2.04464241 20.1383923,2 20.2544643,2 C20.3705363,2 20.4732138,2.04464241 20.5625,2.13392857 L22.0892857,3.66071429 C22.1785719,3.75000045 22.2232143,3.85267799 22.2232143,3.96875 Z" id="ï¦-copy"></path>
        </g>
    </g>
</svg>