<?xml version="1.0" encoding="utf-8"?>
<!-- Generator: Adobe Illustrator 18.1.1, SVG Export Plug-In . SVG Version: 6.00 Build 0)  -->
<svg version="1.1" id="Layer_1" xmlns="http://www.w3.org/2000/svg" xmlns:xlink="http://www.w3.org/1999/xlink" x="0px" y="0px"
	 width="592px" height="459.3px" viewBox="284 -217.3 592 459.3" enable-background="new 284 -217.3 592 459.3"
	 xml:space="preserve">
<rect x="-4315.2" y="-1194.1" display="none" width="5860.8" height="2575.2"/>
<path d="M-2136.8-254.7l-195.4-195.5c-16-16-41.9-16-57.9,0l-876,876l-369.2-369.2c-16-16-41.9-16-57.9,0l-195.4,195.5
	c-16,16-16,41.8,0,57.9l398.2,398.2l195.4,195.4c16,16.1,41.9,16.1,57.9,0l195.5-195.4l904.9-905
	C-2120.8-212.8-2120.8-238.7-2136.8-254.7z"/>
<path fill="#23B482" d="M872-148.1l-65.2-65.2c-5.3-5.4-14-5.4-19.3,0l-292,292L372.4-44.4c-5.3-5.3-14-5.3-19.3,0L288,20.8
	c-5.3,5.3-5.3,13.9,0,19.3l132.7,132.7l65.1,65.1c5.3,5.4,14,5.4,19.3,0l65.1-65.1L872-128.8C877.3-134.2,877.3-142.8,872-148.1z"/>
</svg>
