<?xml version="1.0" encoding="UTF-8" standalone="no"?>
<svg width="24px" height="24px" viewBox="0 0 24 24" version="1.1" xmlns="http://www.w3.org/2000/svg" xmlns:xlink="http://www.w3.org/1999/xlink">
    <!-- Generator: Sketch 41.2 (35397) - http://www.bohemiancoding.com/sketch -->
    <title>Warning</title>
    <desc>Created with Sketch.</desc>
    <defs>
        <path d="M13.3751631,2.8226422 C13.1050418,2.31923429 12.5770774,2 12,2 C11.4229226,2 10.8949582,2.31923429 10.6248369,2.8226422 L1.19514725,20.1104066 C0.925025929,20.589258 0.937304171,21.1786136 1.21970373,21.6574651 C1.50210329,22.1363165 2.01778945,22.4309943 2.57031033,22.4309943 L21.4296897,22.4309943 C21.9822106,22.4309943 22.4978967,22.1363165 22.7802963,21.6574651 C23.0626958,21.1786136 23.0749741,20.589258 22.8048528,20.1104066 L13.3751631,2.8226422 Z" id="path-1"></path>
        <mask id="mask-2" maskContentUnits="userSpaceOnUse" maskUnits="objectBoundingBox" x="0" y="0" width="22" height="20.4309943" fill="white">
            <use xlink:href="#path-1"></use>
        </mask>
        <radialGradient cx="50%" cy="50%" fx="50%" fy="50%" r="50%" id="radialGradient-3">
            <stop stop-color="#FFFFFF" offset="0%"></stop>
            <stop stop-color="#000000" offset="100%"></stop>
        </radialGradient>
    </defs>
    <g id="Page-1" stroke="none" stroke-width="1" fill="none" fill-rule="evenodd">
        <g id="Warning">
            <path d="M13.5716149,18.8825824 C13.5716149,19.1035908 13.3997196,19.2877644 13.1787112,19.2877644 L10.8212888,19.2877644 C10.6002804,19.2877644 10.4283851,19.1035908 10.4283851,18.8825824 L10.4283851,16.5497165 C10.4283851,16.3287081 10.6002804,16.1445345 10.8212888,16.1445345 L13.1787112,16.1445345 C13.3997196,16.1445345 13.5716149,16.3287081 13.5716149,16.5497165 L13.5716149,18.8825824 Z M13.5470585,14.29052 C13.5347802,14.4501371 13.3506066,14.5729196 13.1295982,14.5729196 L10.8581235,14.5729196 C10.6248369,14.5729196 10.4406633,14.4501371 10.4406633,14.29052 L10.2319332,8.67936352 C10.2319332,8.60569407 10.2687679,8.48291165 10.3547156,8.42152044 C10.4283851,8.36012923 10.5388892,8.28645978 10.6493934,8.28645978 L13.3506066,8.28645978 C13.4611108,8.28645978 13.5716149,8.36012923 13.6452844,8.42152044 C13.7312321,8.48291165 13.7680668,8.58113759 13.7680668,8.65480704 L13.5470585,14.29052 Z M13.3751631,2.8226422 C13.1050418,2.31923429 12.5770774,2 12,2 C11.4229226,2 10.8949582,2.31923429 10.6248369,2.8226422 L1.19514725,20.1104066 C0.925025929,20.589258 0.937304171,21.1786136 1.21970373,21.6574651 C1.50210329,22.1363165 2.01778945,22.4309943 2.57031033,22.4309943 L21.4296897,22.4309943 C21.9822106,22.4309943 22.4978967,22.1363165 22.7802963,21.6574651 C23.0626958,21.1786136 23.0749741,20.589258 22.8048528,20.1104066 L13.3751631,2.8226422 Z" fill="#F6C031"></path>
            <use stroke-opacity="0.1" stroke="#000000" mask="url(#mask-2)" stroke-width="2" xlink:href="#path-1"></use>
            <path d="M13.5716149,18.8825824 C13.5716149,19.1035908 13.3997196,19.2877644 13.1787112,19.2877644 L10.8212888,19.2877644 C10.6002804,19.2877644 10.4283851,19.1035908 10.4283851,18.8825824 L10.4283851,16.5497165 C10.4283851,16.3287081 10.6002804,16.1445345 10.8212888,16.1445345 L13.1787112,16.1445345 C13.3997196,16.1445345 13.5716149,16.3287081 13.5716149,16.5497165 L13.5716149,18.8825824 Z M13.5470585,14.29052 C13.5347802,14.4501371 13.3506066,14.5729196 13.1295982,14.5729196 L10.8581235,14.5729196 C10.6248369,14.5729196 10.4406633,14.4501371 10.4406633,14.29052 L10.2319332,8.67936352 C10.2319332,8.60569407 10.2687679,8.48291165 10.3547156,8.42152044 C10.4283851,8.36012923 10.5388892,8.28645978 10.6493934,8.28645978 L13.3506066,8.28645978 C13.4611108,8.28645978 13.5716149,8.36012923 13.6452844,8.42152044 C13.7312321,8.48291165 13.7680668,8.58113759 13.7680668,8.65480704 L13.5470585,14.29052 Z M13.3751631,2.8226422 C13.1050418,2.31923429 12.5770774,2 12,2 C11.4229226,2 10.8949582,2.31923429 10.6248369,2.8226422 L1.19514725,20.1104066 C0.925025929,20.589258 0.937304171,21.1786136 1.21970373,21.6574651 C1.50210329,22.1363165 2.01778945,22.4309943 2.57031033,22.4309943 L21.4296897,22.4309943 C21.9822106,22.4309943 22.4978967,22.1363165 22.7802963,21.6574651 C23.0626958,21.1786136 23.0749741,20.589258 22.8048528,20.1104066 L13.3751631,2.8226422 Z" fill="url(#radialGradient-3)" style="mix-blend-mode: multiply;" opacity="0.15"></path>
        </g>
    </g>
</svg>