<?xml version="1.0" encoding="utf-8"?>
<!-- Generator: Adobe Illustrator 18.1.1, SVG Export Plug-In . SVG Version: 6.00 Build 0)  -->
<svg version="1.1" id="Layer_1" xmlns="http://www.w3.org/2000/svg" xmlns:xlink="http://www.w3.org/1999/xlink" x="0px" y="0px"
	 width="80px" height="80px" viewBox="0 0 80 80" enable-background="new 0 0 80 80" xml:space="preserve">
<g id="Female_Face_21">
</g>
<g>
	<g>
		<path fill="#E6C0B0" d="M60.4,37.6c0-14.6-6.7-21.2-18.4-21.2S23.6,23,23.6,37.6s3,31.8,18.4,31.8S60.4,52.2,60.4,37.6z"/>
		<path d="M42,70c-12.6,0-19-10.9-19-32.4c0-14.5,6.4-21.8,19-21.8s19,7.3,19,21.8C61,59.1,54.6,70,42,70z M42,17.1
			c-11.7,0-17.7,6.9-17.7,20.5c0,20.6,6,31.1,17.7,31.1s17.7-10.5,17.7-31.1C59.7,24,53.7,17.1,42,17.1z"/>
	</g>
	<g>
		<path d="M50.1,25.6c0,0-2.5,8.2-11.5,12.4c-6.2,2.9-11.9,4.8-11.9,13.3s4.8,13.4,4.8,13.4s-14.6,2-20.5-19.5
			C6.5,28.4,16.4,10,38.4,10c4.4,0,10,3.1,10,3.1c5.6,0,21.7,7.7,21.7,29.2c0,13-11.1,21.9-19.1,24.3c0,0,7.9-5.2,7.9-18.3
			C58.8,34.1,50.1,25.6,50.1,25.6z"/>
	</g>
	<g>
		<g>
			<g>
				<g>
					<g>
						<path d="M45.3,36.3c0,0,0,0,0.1-0.1c0.1,0,0.2-0.1,0.3-0.2c0.3-0.1,0.7-0.4,1.2-0.5c0.5-0.2,1.1-0.4,1.7-0.5
							c0.3,0,0.7-0.1,1-0.1s0.7,0,1.1,0c0.2,0,0.3,0,0.5,0s0.4,0,0.5,0.1c0.4,0.1,0.7,0.2,1,0.3c0.6,0.2,1.2,0.5,1.5,0.8
							c0.4,0.3,0.8,0.5,1,0.7c0.2,0.2,0.4,0.3,0.4,0.3c0.2,0.2,0.2,0.5,0,0.7c-0.2,0.2-0.5,0.2-0.7,0c0,0-0.1-0.1-0.3-0.2
							c-0.2-0.1-0.5-0.4-0.9-0.6c-0.4-0.2-0.9-0.4-1.4-0.6c-0.3-0.1-0.5-0.1-0.8-0.2c-0.1,0-0.3,0-0.4,0c-0.1,0-0.3,0-0.5,0
							c-0.3,0-0.6,0-0.8,0.1c-0.3,0-0.6,0.1-0.8,0.2c-0.5,0.1-1,0.4-1.4,0.5c-0.4,0.2-0.7,0.4-0.9,0.5c-0.1,0.1-0.2,0.1-0.2,0.2
							c0,0-0.1,0-0.1,0l0,0c-0.4,0.3-0.9,0.2-1.2-0.2C44.7,37.2,44.8,36.7,45.3,36.3C45.2,36.4,45.3,36.3,45.3,36.3z"/>
					</g>
				</g>
			</g>
		</g>
		<g>
			<g>
				<g>
					<g>
						<path d="M38.2,37.8C38.2,37.8,38.2,37.8,38.2,37.8c-0.1-0.1-0.2-0.1-0.3-0.2c-0.2-0.1-0.5-0.3-0.9-0.5
							c-0.4-0.2-0.9-0.4-1.4-0.5c-0.3-0.1-0.5-0.1-0.8-0.2c-0.3,0-0.6-0.1-0.8-0.1c-0.1,0-0.4,0-0.5,0s-0.3,0-0.4,0
							c-0.3,0-0.6,0.1-0.8,0.2c-0.5,0.1-1,0.4-1.4,0.6c-0.4,0.2-0.7,0.4-0.9,0.6c-0.2,0.1-0.3,0.3-0.3,0.2c-0.2,0.2-0.5,0.2-0.7,0
							c-0.2-0.2-0.2-0.5,0-0.7c0,0,0.1-0.1,0.4-0.3c0.2-0.2,0.6-0.4,1-0.7c0.4-0.3,1-0.6,1.5-0.8c0.3-0.1,0.6-0.2,1-0.3
							c0.2,0,0.4,0,0.5-0.1c0.2,0,0.3,0,0.5,0c0.4,0,0.7,0,1.1,0c0.4,0,0.7,0.1,1,0.1c0.6,0.1,1.2,0.3,1.7,0.5
							c0.5,0.2,0.9,0.4,1.2,0.5c0.1,0.1,0.3,0.1,0.3,0.2c0.1,0,0.1,0.1,0.1,0.1c0.4,0.3,0.5,0.8,0.3,1.2
							C39.2,38,38.7,38.1,38.2,37.8C38.3,37.8,38.2,37.8,38.2,37.8L38.2,37.8z"/>
					</g>
				</g>
			</g>
		</g>
	</g>
	<g>
		<g>
			<path fill="#F1698D" d="M40.1,58.3c0,0,0.4,0.9,2.3,0.9c1.8,0,2.2-1,2.2-1L40.1,58.3z"/>
			<path fill="#F1698D" d="M42.4,59.9c-2.2,0-2.8-1.2-2.9-1.3l-0.4-0.9l6.4-0.1l-0.4,0.9C45,59,44.2,59.9,42.4,59.9z"/>
		</g>
		<g>
			<path fill="#F1698D" d="M39.1,57.5c1.5-1.5,2.5-0.5,3.2-0.5c0.8,0,1.6-1.2,3.3,0.5H39.1"/>
			<path fill="#F1698D" d="M45.6,58.2C45.6,58.2,45.6,58.2,45.6,58.2h-6.5c-0.3,0-0.5-0.2-0.6-0.4c-0.1-0.2,0-0.5,0.1-0.7
				c0.7-0.7,1.4-1,2.1-1c0.5,0,0.9,0.1,1.2,0.2c0.1,0,0.3,0.1,0.4,0.1c0.1,0,0.3-0.1,0.5-0.1c0.3-0.1,0.7-0.3,1.1-0.3
				c0.7,0,1.4,0.3,2.1,1c0.2,0.1,0.3,0.3,0.3,0.5C46.3,57.9,46,58.2,45.6,58.2z"/>
		</g>
	</g>
	<g>
		<g>
			<g>
				<path d="M42.3,58.7c-2.2,0-4.4-0.5-6.4-1.6c-0.3-0.2-0.4-0.6-0.3-0.9c0.2-0.3,0.6-0.4,0.9-0.3c1.8,1,3.8,1.5,5.7,1.5
					c2,0,4-0.5,5.7-1.5c0.3-0.2,0.7-0.1,0.9,0.3c0.2,0.3,0.1,0.7-0.3,0.9C46.7,58.2,44.5,58.7,42.3,58.7z"/>
			</g>
		</g>
	</g>
	<g>
		<g>
			<g>
				<g>
					<circle cx="34.3" cy="43" r="1.5"/>
				</g>
			</g>
		</g>
		<g>
			<g>
				<g>
					<circle cx="50.3" cy="43" r="1.5"/>
				</g>
			</g>
		</g>
	</g>
</g>
</svg>
